<?xml version="1.0" standalone="no"?>
<!DOCTYPE svg PUBLIC "-//W3C//DTD SVG 20010904//EN"
 "http://www.w3.org/TR/2001/REC-SVG-20010904/DTD/svg10.dtd">
<svg version="1.0" xmlns="http://www.w3.org/2000/svg"
 width="225.000000pt" height="225.000000pt" viewBox="0 0 225.000000 225.000000"
 preserveAspectRatio="xMidYMid meet">

<g transform="translate(0.000000,225.000000) scale(0.100000,-0.100000)"
fill="#000000" stroke="none">
<path d="M948 2234 c-355 -55 -667 -285 -828 -609 -276 -557 -50 -1230 505
-1505 318 -157 682 -157 1000 0 124 62 207 124 313 234 178 186 276 400 304
663 54 514 -265 1007 -759 1173 -170 57 -357 72 -535 44z m427 -129 c354 -90
637 -372 732 -730 23 -87 26 -120 26 -250 0 -130 -3 -163 -26 -250 -95 -357
-375 -637 -732 -732 -87 -23 -120 -26 -250 -26 -130 0 -163 3 -250 26 -357 95
-637 375 -732 732 -23 87 -26 120 -26 250 0 130 3 163 26 250 106 397 433 690
843 755 98 15 276 4 389 -25z"/>
<path d="M592 1667 c-128 -129 -133 -139 -109 -253 40 -189 153 -371 356 -575
206 -206 384 -315 578 -354 65 -13 90 -14 116 -6 40 14 255 227 241 240 -20
18 -314 171 -329 171 -9 0 -41 -23 -71 -52 -59 -56 -82 -61 -148 -34 -161 67
-412 337 -441 473 -6 29 -1 38 54 97 34 36 61 73 61 83 0 20 -176 323 -188
323 -4 0 -58 -51 -120 -113z"/>
<path d="M1090 1715 c0 -28 5 -47 13 -49 6 -2 41 -9 77 -15 175 -31 360 -175
440 -343 23 -48 48 -120 57 -164 15 -78 16 -79 47 -81 53 -4 58 5 46 81 -13
83 -48 179 -91 253 -45 78 -189 219 -269 266 -72 42 -187 81 -267 91 l-53 7 0
-46z"/>
<path d="M1090 1495 c0 -41 2 -45 28 -51 171 -38 295 -151 337 -308 l18 -66
45 0 45 0 -7 41 c-32 198 -183 362 -381 414 -85 22 -85 21 -85 -30z"/>
<path d="M1090 1282 c0 -34 3 -39 34 -50 46 -17 111 -81 127 -126 12 -33 16
-36 51 -36 46 0 48 13 14 85 -26 57 -89 118 -150 146 -63 29 -76 26 -76 -19z"/>
</g>
</svg>
